<?xml version="1.0" encoding="UTF-8" standalone="no"?><svg xmlns="http://www.w3.org/2000/svg" xmlns:xlink="http://www.w3.org/1999/xlink" contentScriptType="application/ecmascript" contentStyleType="text/css" height="595px" preserveAspectRatio="none" style="width:1059px;height:595px;" version="1.1" viewBox="0 0 1059 595" width="1059px" zoomAndPan="magnify"><defs/><g><text fill="#000000" font-family="sans-serif" font-size="18" lengthAdjust="spacingAndGlyphs" textLength="500" x="285.5" y="16.708">https://www.github.com/enriquebris/goconcurrentqueue</text><!--MD5=[fd48bf1fdfe6855f088d57c147a7792e]
cluster goconcurrentqueue--><polygon fill="#FFFFFF" points="22,44.9531,186,44.9531,193,67.25,1037,67.25,1037,583.9531,22,583.9531,22,44.9531" style="stroke: #000000; stroke-width: 1.5;"/><line style="stroke: #000000; stroke-width: 1.5;" x1="22" x2="193" y1="67.25" y2="67.25"/><text fill="#000000" font-family="sans-serif" font-size="14" font-weight="bold" lengthAdjust="spacingAndGlyphs" textLength="158" x="26" y="59.9482">goconcurrentqueue</text><!--MD5=[b7c75611aa82bb734f8a9323532aa9d3]
class goconcurrentqueue.FIFO--><rect fill="#FEFECE" height="278.4844" id="goconcurrentqueue.FIFO" rx="5" ry="5" style="stroke: #A80036; stroke-width: 1.5;" width="474" x="38" y="289.9531"/><ellipse cx="257.75" cy="305.9531" fill="#7FFFD4" rx="11" ry="11" style="stroke: #A80036; stroke-width: 1.0;"/><path d="M257.2344,306.5156 Q255.375,305.8125 254.7188,305.0469 Q254.0781,304.2656 254.0781,302.9531 Q254.0781,301.2656 255.1563,300.2969 Q256.2344,299.3281 258.1094,299.3281 Q258.9688,299.3281 259.8125,299.5313 Q260.6719,299.7188 261.5156,300.1094 L261.5156,302.5 Q260.7344,301.9375 259.9063,301.6563 Q259.0938,301.3594 258.2969,301.3594 Q257.4219,301.3594 256.9375,301.7188 Q256.4688,302.0781 256.4688,302.7344 Q256.4688,303.25 256.8125,303.5938 Q257.1563,303.9219 258.25,304.3281 L259.3125,304.7344 Q260.7969,305.2813 261.5,306.1875 Q262.2188,307.0938 262.2188,308.4688 Q262.2188,310.3438 261.1094,311.2656 Q260,312.1875 257.75,312.1875 Q256.8281,312.1875 255.9063,311.9688 Q254.9844,311.75 254.125,311.3281 L254.125,308.7969 Q255.0938,309.4844 256.0156,309.8281 Q256.9375,310.1719 257.8281,310.1719 Q258.7344,310.1719 259.2344,309.7656 Q259.7344,309.3438 259.7344,308.6094 Q259.7344,308.0469 259.3906,307.6406 Q259.0625,307.2188 258.4375,306.9688 L257.2344,306.5156 Z "/><text fill="#000000" font-family="sans-serif" font-size="12" lengthAdjust="spacingAndGlyphs" textLength="26" x="278.25" y="310.1074">FIFO</text><line style="stroke: #A80036; stroke-width: 1.5;" x1="39" x2="511" y1="321.9531" y2="321.9531"/><rect fill="none" height="6" style="stroke: #C82930; stroke-width: 1.0;" width="6" x="46" y="329.9531"/><text fill="#000000" font-family="sans-serif" font-size="11" lengthAdjust="spacingAndGlyphs" textLength="38" x="58" y="336.1636">slice []</text><text fill="#0000FF" font-family="sans-serif" font-size="11" lengthAdjust="spacingAndGlyphs" textLength="50" x="96" y="336.1636">interface</text><text fill="#000000" font-family="sans-serif" font-size="11" lengthAdjust="spacingAndGlyphs" textLength="14" x="146" y="336.1636">{}</text><rect fill="none" height="6" style="stroke: #C82930; stroke-width: 1.0;" width="6" x="46" y="342.7578"/><text fill="#000000" font-family="sans-serif" font-size="11" lengthAdjust="spacingAndGlyphs" textLength="132" x="58" y="348.9683">rwmutex sync.RWMutex</text><rect fill="none" height="6" style="stroke: #C82930; stroke-width: 1.0;" width="6" x="46" y="355.5625"/><text fill="#000000" font-family="sans-serif" font-size="11" lengthAdjust="spacingAndGlyphs" textLength="156" x="58" y="361.7729">lockRWmutex sync.RWMutex</text><rect fill="none" height="6" style="stroke: #C82930; stroke-width: 1.0;" width="6" x="46" y="368.3672"/><text fill="#000000" font-family="sans-serif" font-size="11" lengthAdjust="spacingAndGlyphs" textLength="77" x="58" y="374.5776">isLocked bool</text><rect fill="none" height="6" style="stroke: #C82930; stroke-width: 1.0;" width="6" x="46" y="381.1719"/><text fill="#000000" font-family="sans-serif" font-size="11" lengthAdjust="spacingAndGlyphs" textLength="141" x="58" y="387.3823">waitForNextElementChan</text><text fill="#0000FF" font-family="sans-serif" font-size="11" lengthAdjust="spacingAndGlyphs" textLength="27" x="203" y="387.3823">chan</text><text fill="#000000" font-family="sans-serif" font-size="11" lengthAdjust="spacingAndGlyphs" textLength="0" x="234" y="387.3823"/><text fill="#0000FF" font-family="sans-serif" font-size="11" lengthAdjust="spacingAndGlyphs" textLength="27" x="234" y="387.3823">chan</text><text fill="#000000" font-family="sans-serif" font-size="11" lengthAdjust="spacingAndGlyphs" textLength="0" x="265" y="387.3823"/><text fill="#0000FF" font-family="sans-serif" font-size="11" lengthAdjust="spacingAndGlyphs" textLength="50" x="265" y="387.3823">interface</text><text fill="#000000" font-family="sans-serif" font-size="11" lengthAdjust="spacingAndGlyphs" textLength="14" x="315" y="387.3823">{}</text><line style="stroke: #A80036; stroke-width: 1.5;" x1="39" x2="511" y1="393.9766" y2="393.9766"/><rect fill="#F24D5C" height="6" style="stroke: #C82930; stroke-width: 1.0;" width="6" x="46" y="401.9766"/><text fill="#000000" font-family="sans-serif" font-size="11" lengthAdjust="spacingAndGlyphs" textLength="53" x="58" y="408.187">initialize()</text><text fill="#000000" font-family="sans-serif" font-size="11" lengthAdjust="spacingAndGlyphs" textLength="0" x="62" y="420.9917"/><ellipse cx="49" cy="430.5859" fill="#84BE84" rx="3" ry="3" style="stroke: #038048; stroke-width: 1.0;"/><text fill="#000000" font-family="sans-serif" font-size="11" lengthAdjust="spacingAndGlyphs" textLength="83" x="58" y="433.7964">Enqueue(value</text><text fill="#0000FF" font-family="sans-serif" font-size="11" lengthAdjust="spacingAndGlyphs" textLength="50" x="145" y="433.7964">interface</text><text fill="#000000" font-family="sans-serif" font-size="11" lengthAdjust="spacingAndGlyphs" textLength="51" x="195" y="433.7964">{}) error</text><ellipse cx="49" cy="443.3906" fill="#84BE84" rx="3" ry="3" style="stroke: #038048; stroke-width: 1.0;"/><text fill="#000000" font-family="sans-serif" font-size="11" lengthAdjust="spacingAndGlyphs" textLength="66" x="58" y="446.6011">Dequeue() (</text><text fill="#0000FF" font-family="sans-serif" font-size="11" lengthAdjust="spacingAndGlyphs" textLength="50" x="124" y="446.6011">interface</text><text fill="#000000" font-family="sans-serif" font-size="11" lengthAdjust="spacingAndGlyphs" textLength="55" x="174" y="446.6011">{}, error)</text><ellipse cx="49" cy="456.1953" fill="#84BE84" rx="3" ry="3" style="stroke: #038048; stroke-width: 1.0;"/><text fill="#000000" font-family="sans-serif" font-size="11" lengthAdjust="spacingAndGlyphs" textLength="192" x="58" y="459.4058">DequeueOrWaitForNextElement() (</text><text fill="#0000FF" font-family="sans-serif" font-size="11" lengthAdjust="spacingAndGlyphs" textLength="50" x="250" y="459.4058">interface</text><text fill="#000000" font-family="sans-serif" font-size="11" lengthAdjust="spacingAndGlyphs" textLength="55" x="300" y="459.4058">{}, error)</text><ellipse cx="49" cy="469" fill="#84BE84" rx="3" ry="3" style="stroke: #038048; stroke-width: 1.0;"/><text fill="#000000" font-family="sans-serif" font-size="11" lengthAdjust="spacingAndGlyphs" textLength="343" x="58" y="472.2104">DequeueOrWaitForNextElementContext(ctx context.Context) (</text><text fill="#0000FF" font-family="sans-serif" font-size="11" lengthAdjust="spacingAndGlyphs" textLength="50" x="401" y="472.2104">interface</text><text fill="#000000" font-family="sans-serif" font-size="11" lengthAdjust="spacingAndGlyphs" textLength="55" x="451" y="472.2104">{}, error)</text><ellipse cx="49" cy="481.8047" fill="#84BE84" rx="3" ry="3" style="stroke: #038048; stroke-width: 1.0;"/><text fill="#000000" font-family="sans-serif" font-size="11" lengthAdjust="spacingAndGlyphs" textLength="84" x="58" y="485.0151">Get(index int) (</text><text fill="#0000FF" font-family="sans-serif" font-size="11" lengthAdjust="spacingAndGlyphs" textLength="50" x="142" y="485.0151">interface</text><text fill="#000000" font-family="sans-serif" font-size="11" lengthAdjust="spacingAndGlyphs" textLength="55" x="192" y="485.0151">{}, error)</text><ellipse cx="49" cy="494.6094" fill="#84BE84" rx="3" ry="3" style="stroke: #038048; stroke-width: 1.0;"/><text fill="#000000" font-family="sans-serif" font-size="11" lengthAdjust="spacingAndGlyphs" textLength="134" x="58" y="497.8198">Remove(index int) error</text><ellipse cx="49" cy="507.4141" fill="#84BE84" rx="3" ry="3" style="stroke: #038048; stroke-width: 1.0;"/><text fill="#000000" font-family="sans-serif" font-size="11" lengthAdjust="spacingAndGlyphs" textLength="66" x="58" y="510.6245">GetLen() int</text><ellipse cx="49" cy="520.2188" fill="#84BE84" rx="3" ry="3" style="stroke: #038048; stroke-width: 1.0;"/><text fill="#000000" font-family="sans-serif" font-size="11" lengthAdjust="spacingAndGlyphs" textLength="68" x="58" y="523.4292">GetCap() int</text><ellipse cx="49" cy="533.0234" fill="#84BE84" rx="3" ry="3" style="stroke: #038048; stroke-width: 1.0;"/><text fill="#000000" font-family="sans-serif" font-size="11" lengthAdjust="spacingAndGlyphs" textLength="33" x="58" y="536.2339">Lock()</text><ellipse cx="49" cy="545.8281" fill="#84BE84" rx="3" ry="3" style="stroke: #038048; stroke-width: 1.0;"/><text fill="#000000" font-family="sans-serif" font-size="11" lengthAdjust="spacingAndGlyphs" textLength="45" x="58" y="549.0386">Unlock()</text><ellipse cx="49" cy="558.6328" fill="#84BE84" rx="3" ry="3" style="stroke: #038048; stroke-width: 1.0;"/><text fill="#000000" font-family="sans-serif" font-size="11" lengthAdjust="spacingAndGlyphs" textLength="85" x="58" y="561.8433">IsLocked() bool</text><!--MD5=[40eec26091eada468a24df9278670ef0]
class goconcurrentqueue.FixedFIFO--><rect fill="#FEFECE" height="227.2656" id="goconcurrentqueue.FixedFIFO" rx="5" ry="5" style="stroke: #A80036; stroke-width: 1.5;" width="474" x="547" y="315.4531"/><ellipse cx="750.75" cy="331.4531" fill="#7FFFD4" rx="11" ry="11" style="stroke: #A80036; stroke-width: 1.0;"/><path d="M750.2344,332.0156 Q748.375,331.3125 747.7188,330.5469 Q747.0781,329.7656 747.0781,328.4531 Q747.0781,326.7656 748.1563,325.7969 Q749.2344,324.8281 751.1094,324.8281 Q751.9688,324.8281 752.8125,325.0313 Q753.6719,325.2188 754.5156,325.6094 L754.5156,328 Q753.7344,327.4375 752.9063,327.1563 Q752.0938,326.8594 751.2969,326.8594 Q750.4219,326.8594 749.9375,327.2188 Q749.4688,327.5781 749.4688,328.2344 Q749.4688,328.75 749.8125,329.0938 Q750.1563,329.4219 751.25,329.8281 L752.3125,330.2344 Q753.7969,330.7813 754.5,331.6875 Q755.2188,332.5938 755.2188,333.9688 Q755.2188,335.8438 754.1094,336.7656 Q753,337.6875 750.75,337.6875 Q749.8281,337.6875 748.9063,337.4688 Q747.9844,337.25 747.125,336.8281 L747.125,334.2969 Q748.0938,334.9844 749.0156,335.3281 Q749.9375,335.6719 750.8281,335.6719 Q751.7344,335.6719 752.2344,335.2656 Q752.7344,334.8438 752.7344,334.1094 Q752.7344,333.5469 752.3906,333.1406 Q752.0625,332.7188 751.4375,332.4688 L750.2344,332.0156 Z "/><text fill="#000000" font-family="sans-serif" font-size="12" lengthAdjust="spacingAndGlyphs" textLength="58" x="771.25" y="335.6074">FixedFIFO</text><line style="stroke: #A80036; stroke-width: 1.5;" x1="548" x2="1020" y1="347.4531" y2="347.4531"/><rect fill="none" height="6" style="stroke: #C82930; stroke-width: 1.0;" width="6" x="555" y="355.4531"/><text fill="#000000" font-family="sans-serif" font-size="11" lengthAdjust="spacingAndGlyphs" textLength="35" x="567" y="361.6636">queue</text><text fill="#0000FF" font-family="sans-serif" font-size="11" lengthAdjust="spacingAndGlyphs" textLength="27" x="606" y="361.6636">chan</text><text fill="#000000" font-family="sans-serif" font-size="11" lengthAdjust="spacingAndGlyphs" textLength="0" x="637" y="361.6636"/><text fill="#0000FF" font-family="sans-serif" font-size="11" lengthAdjust="spacingAndGlyphs" textLength="50" x="637" y="361.6636">interface</text><text fill="#000000" font-family="sans-serif" font-size="11" lengthAdjust="spacingAndGlyphs" textLength="14" x="687" y="361.6636">{}</text><rect fill="none" height="6" style="stroke: #C82930; stroke-width: 1.0;" width="6" x="555" y="368.2578"/><text fill="#000000" font-family="sans-serif" font-size="11" lengthAdjust="spacingAndGlyphs" textLength="51" x="567" y="374.4683">lockChan</text><text fill="#0000FF" font-family="sans-serif" font-size="11" lengthAdjust="spacingAndGlyphs" textLength="27" x="622" y="374.4683">chan</text><text fill="#000000" font-family="sans-serif" font-size="11" lengthAdjust="spacingAndGlyphs" textLength="0" x="653" y="374.4683"/><text fill="#0000FF" font-family="sans-serif" font-size="11" lengthAdjust="spacingAndGlyphs" textLength="33" x="653" y="374.4683">struct</text><text fill="#000000" font-family="sans-serif" font-size="11" lengthAdjust="spacingAndGlyphs" textLength="14" x="686" y="374.4683">{}</text><rect fill="none" height="6" style="stroke: #C82930; stroke-width: 1.0;" width="6" x="555" y="381.0625"/><text fill="#000000" font-family="sans-serif" font-size="11" lengthAdjust="spacingAndGlyphs" textLength="141" x="567" y="387.2729">waitForNextElementChan</text><text fill="#0000FF" font-family="sans-serif" font-size="11" lengthAdjust="spacingAndGlyphs" textLength="27" x="712" y="387.2729">chan</text><text fill="#000000" font-family="sans-serif" font-size="11" lengthAdjust="spacingAndGlyphs" textLength="0" x="743" y="387.2729"/><text fill="#0000FF" font-family="sans-serif" font-size="11" lengthAdjust="spacingAndGlyphs" textLength="27" x="743" y="387.2729">chan</text><text fill="#000000" font-family="sans-serif" font-size="11" lengthAdjust="spacingAndGlyphs" textLength="0" x="774" y="387.2729"/><text fill="#0000FF" font-family="sans-serif" font-size="11" lengthAdjust="spacingAndGlyphs" textLength="50" x="774" y="387.2729">interface</text><text fill="#000000" font-family="sans-serif" font-size="11" lengthAdjust="spacingAndGlyphs" textLength="14" x="824" y="387.2729">{}</text><line style="stroke: #A80036; stroke-width: 1.5;" x1="548" x2="1020" y1="393.8672" y2="393.8672"/><rect fill="#F24D5C" height="6" style="stroke: #C82930; stroke-width: 1.0;" width="6" x="555" y="401.8672"/><text fill="#000000" font-family="sans-serif" font-size="11" lengthAdjust="spacingAndGlyphs" textLength="117" x="567" y="408.0776">initialize(capacity int)</text><text fill="#000000" font-family="sans-serif" font-size="11" lengthAdjust="spacingAndGlyphs" textLength="0" x="571" y="420.8823"/><ellipse cx="558" cy="430.4766" fill="#84BE84" rx="3" ry="3" style="stroke: #038048; stroke-width: 1.0;"/><text fill="#000000" font-family="sans-serif" font-size="11" lengthAdjust="spacingAndGlyphs" textLength="83" x="567" y="433.687">Enqueue(value</text><text fill="#0000FF" font-family="sans-serif" font-size="11" lengthAdjust="spacingAndGlyphs" textLength="50" x="654" y="433.687">interface</text><text fill="#000000" font-family="sans-serif" font-size="11" lengthAdjust="spacingAndGlyphs" textLength="51" x="704" y="433.687">{}) error</text><ellipse cx="558" cy="443.2813" fill="#84BE84" rx="3" ry="3" style="stroke: #038048; stroke-width: 1.0;"/><text fill="#000000" font-family="sans-serif" font-size="11" lengthAdjust="spacingAndGlyphs" textLength="66" x="567" y="446.4917">Dequeue() (</text><text fill="#0000FF" font-family="sans-serif" font-size="11" lengthAdjust="spacingAndGlyphs" textLength="50" x="633" y="446.4917">interface</text><text fill="#000000" font-family="sans-serif" font-size="11" lengthAdjust="spacingAndGlyphs" textLength="55" x="683" y="446.4917">{}, error)</text><ellipse cx="558" cy="456.0859" fill="#84BE84" rx="3" ry="3" style="stroke: #038048; stroke-width: 1.0;"/><text fill="#000000" font-family="sans-serif" font-size="11" lengthAdjust="spacingAndGlyphs" textLength="192" x="567" y="459.2964">DequeueOrWaitForNextElement() (</text><text fill="#0000FF" font-family="sans-serif" font-size="11" lengthAdjust="spacingAndGlyphs" textLength="50" x="759" y="459.2964">interface</text><text fill="#000000" font-family="sans-serif" font-size="11" lengthAdjust="spacingAndGlyphs" textLength="55" x="809" y="459.2964">{}, error)</text><ellipse cx="558" cy="468.8906" fill="#84BE84" rx="3" ry="3" style="stroke: #038048; stroke-width: 1.0;"/><text fill="#000000" font-family="sans-serif" font-size="11" lengthAdjust="spacingAndGlyphs" textLength="343" x="567" y="472.1011">DequeueOrWaitForNextElementContext(ctx context.Context) (</text><text fill="#0000FF" font-family="sans-serif" font-size="11" lengthAdjust="spacingAndGlyphs" textLength="50" x="910" y="472.1011">interface</text><text fill="#000000" font-family="sans-serif" font-size="11" lengthAdjust="spacingAndGlyphs" textLength="55" x="960" y="472.1011">{}, error)</text><ellipse cx="558" cy="481.6953" fill="#84BE84" rx="3" ry="3" style="stroke: #038048; stroke-width: 1.0;"/><text fill="#000000" font-family="sans-serif" font-size="11" lengthAdjust="spacingAndGlyphs" textLength="66" x="567" y="484.9058">GetLen() int</text><ellipse cx="558" cy="494.5" fill="#84BE84" rx="3" ry="3" style="stroke: #038048; stroke-width: 1.0;"/><text fill="#000000" font-family="sans-serif" font-size="11" lengthAdjust="spacingAndGlyphs" textLength="68" x="567" y="497.7104">GetCap() int</text><ellipse cx="558" cy="507.3047" fill="#84BE84" rx="3" ry="3" style="stroke: #038048; stroke-width: 1.0;"/><text fill="#000000" font-family="sans-serif" font-size="11" lengthAdjust="spacingAndGlyphs" textLength="33" x="567" y="510.5151">Lock()</text><ellipse cx="558" cy="520.1094" fill="#84BE84" rx="3" ry="3" style="stroke: #038048; stroke-width: 1.0;"/><text fill="#000000" font-family="sans-serif" font-size="11" lengthAdjust="spacingAndGlyphs" textLength="45" x="567" y="523.3198">Unlock()</text><ellipse cx="558" cy="532.9141" fill="#84BE84" rx="3" ry="3" style="stroke: #038048; stroke-width: 1.0;"/><text fill="#000000" font-family="sans-serif" font-size="11" lengthAdjust="spacingAndGlyphs" textLength="85" x="567" y="536.1245">IsLocked() bool</text><!--MD5=[e0955448a6edc234e10eb14c02ec0ba7]
class goconcurrentqueue.Queue--><rect fill="#FEFECE" height="150.4375" id="goconcurrentqueue.Queue" rx="5" ry="5" style="stroke: #A80036; stroke-width: 1.5;" width="323" x="513.5" y="79.9531"/><ellipse cx="650.75" cy="95.9531" fill="#B4A7E5" rx="11" ry="11" style="stroke: #A80036; stroke-width: 1.0;"/><path d="M646.6719,91.7188 L646.6719,89.5625 L654.0625,89.5625 L654.0625,91.7188 L651.5938,91.7188 L651.5938,99.7969 L654.0625,99.7969 L654.0625,101.9531 L646.6719,101.9531 L646.6719,99.7969 L649.1406,99.7969 L649.1406,91.7188 L646.6719,91.7188 Z "/><text fill="#000000" font-family="sans-serif" font-size="12" font-style="italic" lengthAdjust="spacingAndGlyphs" textLength="40" x="671.25" y="100.1074">Queue</text><line style="stroke: #A80036; stroke-width: 1.5;" x1="514.5" x2="835.5" y1="111.9531" y2="111.9531"/><line style="stroke: #A80036; stroke-width: 1.5;" x1="514.5" x2="835.5" y1="119.9531" y2="119.9531"/><ellipse cx="524.5" cy="130.9531" fill="#84BE84" rx="3" ry="3" style="stroke: #038048; stroke-width: 1.0;"/><text fill="#000000" font-family="sans-serif" font-size="11" lengthAdjust="spacingAndGlyphs" textLength="53" x="533.5" y="134.1636">Enqueue(</text><text fill="#0000FF" font-family="sans-serif" font-size="11" lengthAdjust="spacingAndGlyphs" textLength="50" x="590.5" y="134.1636">interface</text><text fill="#000000" font-family="sans-serif" font-size="11" lengthAdjust="spacingAndGlyphs" textLength="51" x="640.5" y="134.1636">{}) error</text><ellipse cx="524.5" cy="143.7578" fill="#84BE84" rx="3" ry="3" style="stroke: #038048; stroke-width: 1.0;"/><text fill="#000000" font-family="sans-serif" font-size="11" lengthAdjust="spacingAndGlyphs" textLength="66" x="533.5" y="146.9683">Dequeue() (</text><text fill="#0000FF" font-family="sans-serif" font-size="11" lengthAdjust="spacingAndGlyphs" textLength="50" x="599.5" y="146.9683">interface</text><text fill="#000000" font-family="sans-serif" font-size="11" lengthAdjust="spacingAndGlyphs" textLength="55" x="649.5" y="146.9683">{}, error)</text><ellipse cx="524.5" cy="156.5625" fill="#84BE84" rx="3" ry="3" style="stroke: #038048; stroke-width: 1.0;"/><text fill="#000000" font-family="sans-serif" font-size="11" lengthAdjust="spacingAndGlyphs" textLength="192" x="533.5" y="159.7729">DequeueOrWaitForNextElement() (</text><text fill="#0000FF" font-family="sans-serif" font-size="11" lengthAdjust="spacingAndGlyphs" textLength="50" x="725.5" y="159.7729">interface</text><text fill="#000000" font-family="sans-serif" font-size="11" lengthAdjust="spacingAndGlyphs" textLength="55" x="775.5" y="159.7729">{}, error)</text><ellipse cx="524.5" cy="169.3672" fill="#84BE84" rx="3" ry="3" style="stroke: #038048; stroke-width: 1.0;"/><text fill="#000000" font-family="sans-serif" font-size="11" lengthAdjust="spacingAndGlyphs" textLength="66" x="533.5" y="172.5776">GetLen() int</text><ellipse cx="524.5" cy="182.1719" fill="#84BE84" rx="3" ry="3" style="stroke: #038048; stroke-width: 1.0;"/><text fill="#000000" font-family="sans-serif" font-size="11" lengthAdjust="spacingAndGlyphs" textLength="68" x="533.5" y="185.3823">GetCap() int</text><ellipse cx="524.5" cy="194.9766" fill="#84BE84" rx="3" ry="3" style="stroke: #038048; stroke-width: 1.0;"/><text fill="#000000" font-family="sans-serif" font-size="11" lengthAdjust="spacingAndGlyphs" textLength="33" x="533.5" y="198.187">Lock()</text><ellipse cx="524.5" cy="207.7813" fill="#84BE84" rx="3" ry="3" style="stroke: #038048; stroke-width: 1.0;"/><text fill="#000000" font-family="sans-serif" font-size="11" lengthAdjust="spacingAndGlyphs" textLength="45" x="533.5" y="210.9917">Unlock()</text><ellipse cx="524.5" cy="220.5859" fill="#84BE84" rx="3" ry="3" style="stroke: #038048; stroke-width: 1.0;"/><text fill="#000000" font-family="sans-serif" font-size="11" lengthAdjust="spacingAndGlyphs" textLength="85" x="533.5" y="223.7964">IsLocked() bool</text><!--MD5=[5b2f6e8eeac6357b1a8734c4c4ff2ea0]
class goconcurrentqueue.QueueError--><rect fill="#FEFECE" height="99.2188" id="goconcurrentqueue.QueueError" rx="5" ry="5" style="stroke: #A80036; stroke-width: 1.5;" width="116" x="254" y="105.4531"/><ellipse cx="274.4" cy="121.4531" fill="#7FFFD4" rx="11" ry="11" style="stroke: #A80036; stroke-width: 1.0;"/><path d="M273.8844,122.0156 Q272.025,121.3125 271.3688,120.5469 Q270.7281,119.7656 270.7281,118.4531 Q270.7281,116.7656 271.8063,115.7969 Q272.8844,114.8281 274.7594,114.8281 Q275.6188,114.8281 276.4625,115.0313 Q277.3219,115.2188 278.1656,115.6094 L278.1656,118 Q277.3844,117.4375 276.5563,117.1563 Q275.7438,116.8594 274.9469,116.8594 Q274.0719,116.8594 273.5875,117.2188 Q273.1188,117.5781 273.1188,118.2344 Q273.1188,118.75 273.4625,119.0938 Q273.8063,119.4219 274.9,119.8281 L275.9625,120.2344 Q277.4469,120.7813 278.15,121.6875 Q278.8688,122.5938 278.8688,123.9688 Q278.8688,125.8438 277.7594,126.7656 Q276.65,127.6875 274.4,127.6875 Q273.4781,127.6875 272.5563,127.4688 Q271.6344,127.25 270.775,126.8281 L270.775,124.2969 Q271.7438,124.9844 272.6656,125.3281 Q273.5875,125.6719 274.4781,125.6719 Q275.3844,125.6719 275.8844,125.2656 Q276.3844,124.8438 276.3844,124.1094 Q276.3844,123.5469 276.0406,123.1406 Q275.7125,122.7188 275.0875,122.4688 L273.8844,122.0156 Z "/><text fill="#000000" font-family="sans-serif" font-size="12" lengthAdjust="spacingAndGlyphs" textLength="72" x="289.6" y="125.6074">QueueError</text><line style="stroke: #A80036; stroke-width: 1.5;" x1="255" x2="369" y1="137.4531" y2="137.4531"/><rect fill="none" height="6" style="stroke: #C82930; stroke-width: 1.0;" width="6" x="262" y="145.4531"/><text fill="#000000" font-family="sans-serif" font-size="11" lengthAdjust="spacingAndGlyphs" textLength="64" x="274" y="151.6636">code string</text><rect fill="none" height="6" style="stroke: #C82930; stroke-width: 1.0;" width="6" x="262" y="158.2578"/><text fill="#000000" font-family="sans-serif" font-size="11" lengthAdjust="spacingAndGlyphs" textLength="90" x="274" y="164.4683">message string</text><line style="stroke: #A80036; stroke-width: 1.5;" x1="255" x2="369" y1="171.0625" y2="171.0625"/><ellipse cx="265" cy="182.0625" fill="#84BE84" rx="3" ry="3" style="stroke: #038048; stroke-width: 1.0;"/><text fill="#000000" font-family="sans-serif" font-size="11" lengthAdjust="spacingAndGlyphs" textLength="74" x="274" y="185.2729">Error() string</text><ellipse cx="265" cy="194.8672" fill="#84BE84" rx="3" ry="3" style="stroke: #038048; stroke-width: 1.0;"/><text fill="#000000" font-family="sans-serif" font-size="11" lengthAdjust="spacingAndGlyphs" textLength="74" x="274" y="198.0776">Code() string</text><!--MD5=[a0a6bbd2d139b31fa04aba2d7202ed59]
reverse link goconcurrentqueue.Queue to goconcurrentqueue.FIFO--><path d="M549.328,241.4101 C526.641,256.8371 502.466,273.2761 478.228,289.7581 " fill="none" id="goconcurrentqueue.Queue&lt;-goconcurrentqueue.FIFO" style="stroke: #A80036; stroke-width: 1.0;"/><polygon fill="none" points="545.488,235.5561,565.963,230.0981,553.36,247.1331,545.488,235.5561" style="stroke: #A80036; stroke-width: 1.0;"/><text fill="#000000" font-family="sans-serif" font-size="13" lengthAdjust="spacingAndGlyphs" textLength="76" x="411.2639" y="278.793">implements</text><!--MD5=[2bfcd68b7b2a17f178705f7c19c1a86f]
reverse link goconcurrentqueue.Queue to goconcurrentqueue.FixedFIFO--><path d="M712.285,248.9951 C720.852,270.3731 730.051,293.3281 738.908,315.4301 " fill="none" id="goconcurrentqueue.Queue&lt;-goconcurrentqueue.FixedFIFO" style="stroke: #A80036; stroke-width: 1.0;"/><polygon fill="none" points="705.727,251.4471,704.785,230.2781,718.722,246.2391,705.727,251.4471" style="stroke: #A80036; stroke-width: 1.0;"/><text fill="#000000" font-family="sans-serif" font-size="13" lengthAdjust="spacingAndGlyphs" textLength="76" x="657.3253" y="304.3613">implements</text><!--MD5=[0d66ee61bcaa7c12432ea609f6ff698a]
@startuml
skinparamlocked shadowing false
skinparamlocked roundCorner 10
title https://www.github.com/enriquebris/goconcurrentqueue
namespace goconcurrentqueue {
    class FIFO << (S,Aquamarine) >> {
        - slice []<font color=blue>interface</font>{}
        - rwmutex sync.RWMutex
        - lockRWmutex sync.RWMutex
        - isLocked bool
        - waitForNextElementChan <font color=blue>chan</font> <font color=blue>chan</font> <font color=blue>interface</font>{}

        - initialize() 

        + Enqueue(value <font color=blue>interface</font>{}) error
        + Dequeue() (<font color=blue>interface</font>{}, error)
        + DequeueOrWaitForNextElement() (<font color=blue>interface</font>{}, error)
        + DequeueOrWaitForNextElementContext(ctx context.Context) (<font color=blue>interface</font>{}, error)
        + Get(index int) (<font color=blue>interface</font>{}, error)
        + Remove(index int) error
        + GetLen() int
        + GetCap() int
        + Lock() 
        + Unlock() 
        + IsLocked() bool

    }
    class FixedFIFO << (S,Aquamarine) >> {
        - queue <font color=blue>chan</font> <font color=blue>interface</font>{}
        - lockChan <font color=blue>chan</font> <font color=blue>struct</font>{}
        - waitForNextElementChan <font color=blue>chan</font> <font color=blue>chan</font> <font color=blue>interface</font>{}

        - initialize(capacity int) 

        + Enqueue(value <font color=blue>interface</font>{}) error
        + Dequeue() (<font color=blue>interface</font>{}, error)
        + DequeueOrWaitForNextElement() (<font color=blue>interface</font>{}, error)
        + DequeueOrWaitForNextElementContext(ctx context.Context) (<font color=blue>interface</font>{}, error)
        + GetLen() int
        + GetCap() int
        + Lock() 
        + Unlock() 
        + IsLocked() bool

    }
    interface Queue  {
        + Enqueue( <font color=blue>interface</font>{}) error
        + Dequeue() (<font color=blue>interface</font>{}, error)
        + DequeueOrWaitForNextElement() (<font color=blue>interface</font>{}, error)
        + GetLen() int
        + GetCap() int
        + Lock() 
        + Unlock() 
        + IsLocked() bool

    }
    class QueueError << (S,Aquamarine) >> {
        - code string
        - message string

        + Error() string
        + Code() string

    }
}

"goconcurrentqueue.Queue" <|- - "implements""goconcurrentqueue.FIFO"
"goconcurrentqueue.Queue" <|- - "implements""goconcurrentqueue.FixedFIFO"


@enduml

PlantUML version 1.2019.12(Sun Nov 03 10:24:54 UTC 2019)
(GPL source distribution)
Java Runtime: OpenJDK Runtime Environment
JVM: OpenJDK 64-Bit Server VM
Java Version: 1.8.0_242-8u242-b08-1~deb9u1-b08
Operating System: Linux
Default Encoding: ANSI_X3.4-1968
Language: en
Country: US
--></g></svg>